<svg width="162" height="30" viewBox="0 0 162 30" fill="none" xmlns="http://www.w3.org/2000/svg">
<path d="M0.84 10V4.4H3.2C3.79733 4.4 4.32267 4.51733 4.776 4.752C5.23467 4.98667 5.58933 5.31467 5.84 5.736C6.096 6.15733 6.224 6.64533 6.224 7.2C6.224 7.75467 6.096 8.24267 5.84 8.664C5.58933 9.08533 5.23467 9.41333 4.776 9.648C4.32267 9.88267 3.79733 10 3.2 10H0.84ZM1.64 9.304H3.152C3.616 9.304 4.016 9.216 4.352 9.04C4.69333 8.864 4.95733 8.61867 5.144 8.304C5.33067 7.984 5.424 7.616 5.424 7.2C5.424 6.77867 5.33067 6.41067 5.144 6.096C4.95733 5.78133 4.69333 5.536 4.352 5.36C4.016 5.184 3.616 5.096 3.152 5.096H1.64V9.304ZM9.22538 10.048C8.77204 10.048 8.37204 9.95467 8.02538 9.768C7.68404 9.58133 7.41738 9.32533 7.22538 9C7.03871 8.67467 6.94538 8.30133 6.94538 7.88C6.94538 7.45867 7.03604 7.08533 7.21738 6.76C7.40404 6.43467 7.65738 6.18133 7.97738 6C8.30271 5.81333 8.66804 5.72 9.07338 5.72C9.48404 5.72 9.84671 5.81067 10.1614 5.992C10.476 6.17333 10.7214 6.42933 10.8974 6.76C11.0787 7.08533 11.1694 7.46667 11.1694 7.904C11.1694 7.936 11.1667 7.97333 11.1614 8.016C11.1614 8.05867 11.1587 8.09867 11.1534 8.136H7.54538V7.584H10.7534L10.4414 7.776C10.4467 7.504 10.3907 7.26133 10.2734 7.048C10.156 6.83467 9.99338 6.66933 9.78538 6.552C9.58271 6.42933 9.34538 6.368 9.07338 6.368C8.80671 6.368 8.56938 6.42933 8.36138 6.552C8.15338 6.66933 7.99071 6.83733 7.87338 7.056C7.75604 7.26933 7.69738 7.51467 7.69738 7.792V7.92C7.69738 8.20267 7.76138 8.456 7.88938 8.68C8.02271 8.89867 8.20671 9.06933 8.44138 9.192C8.67604 9.31467 8.94538 9.376 9.24938 9.376C9.50004 9.376 9.72671 9.33333 9.92938 9.248C10.1374 9.16267 10.3187 9.03467 10.4734 8.864L10.8974 9.36C10.7054 9.584 10.4654 9.75467 10.1774 9.872C9.89471 9.98933 9.57738 10.048 9.22538 10.048ZM13.2697 10L11.4137 5.76H12.2137L13.8617 9.6H13.4777L15.1577 5.76H15.9097L14.0537 10H13.2697ZM18.3973 10.048C17.9439 10.048 17.5439 9.95467 17.1973 9.768C16.8559 9.58133 16.5893 9.32533 16.3973 9C16.2106 8.67467 16.1173 8.30133 16.1173 7.88C16.1173 7.45867 16.2079 7.08533 16.3893 6.76C16.5759 6.43467 16.8293 6.18133 17.1493 6C17.4746 5.81333 17.8399 5.72 18.2453 5.72C18.6559 5.72 19.0186 5.81067 19.3333 5.992C19.6479 6.17333 19.8933 6.42933 20.0693 6.76C20.2506 7.08533 20.3413 7.46667 20.3413 7.904C20.3413 7.936 20.3386 7.97333 20.3333 8.016C20.3333 8.05867 20.3306 8.09867 20.3253 8.136H16.7173V7.584H19.9253L19.6133 7.776C19.6186 7.504 19.5626 7.26133 19.4453 7.048C19.3279 6.83467 19.1653 6.66933 18.9573 6.552C18.7546 6.42933 18.5173 6.368 18.2453 6.368C17.9786 6.368 17.7413 6.42933 17.5333 6.552C17.3253 6.66933 17.1626 6.83733 17.0453 7.056C16.9279 7.26933 16.8693 7.51467 16.8693 7.792V7.92C16.8693 8.20267 16.9333 8.456 17.0613 8.68C17.1946 8.89867 17.3786 9.06933 17.6133 9.192C17.8479 9.31467 18.1173 9.376 18.4213 9.376C18.6719 9.376 18.8986 9.33333 19.1013 9.248C19.3093 9.16267 19.4906 9.03467 19.6453 8.864L20.0693 9.36C19.8773 9.584 19.6373 9.75467 19.3493 9.872C19.0666 9.98933 18.7493 10.048 18.3973 10.048ZM21.4077 10V4.064H22.1757V10H21.4077ZM25.4581 10.048C25.0314 10.048 24.6527 9.95467 24.3221 9.768C23.9914 9.58133 23.7301 9.32533 23.5381 9C23.3461 8.66933 23.2501 8.296 23.2501 7.88C23.2501 7.45867 23.3461 7.08533 23.5381 6.76C23.7301 6.43467 23.9914 6.18133 24.3221 6C24.6527 5.81333 25.0314 5.72 25.4581 5.72C25.8794 5.72 26.2554 5.81333 26.5861 6C26.9221 6.18133 27.1834 6.43467 27.3701 6.76C27.5621 7.08 27.6581 7.45333 27.6581 7.88C27.6581 8.30133 27.5621 8.67467 27.3701 9C27.1834 9.32533 26.9221 9.58133 26.5861 9.768C26.2554 9.95467 25.8794 10.048 25.4581 10.048ZM25.4581 9.376C25.7301 9.376 25.9727 9.31467 26.1861 9.192C26.4047 9.06933 26.5754 8.896 26.6981 8.672C26.8207 8.44267 26.8821 8.17867 26.8821 7.88C26.8821 7.576 26.8207 7.31467 26.6981 7.096C26.5754 6.872 26.4047 6.69867 26.1861 6.576C25.9727 6.45333 25.7301 6.392 25.4581 6.392C25.1861 6.392 24.9434 6.45333 24.7301 6.576C24.5167 6.69867 24.3461 6.872 24.2181 7.096C24.0901 7.31467 24.0261 7.576 24.0261 7.88C24.0261 8.17867 24.0901 8.44267 24.2181 8.672C24.3461 8.896 24.5167 9.06933 24.7301 9.192C24.9434 9.31467 25.1861 9.376 25.4581 9.376ZM30.9682 10.048C30.6162 10.048 30.2935 9.968 30.0002 9.808C29.7122 9.64267 29.4802 9.4 29.3042 9.08C29.1335 8.76 29.0482 8.36 29.0482 7.88C29.0482 7.4 29.1309 7 29.2962 6.68C29.4669 6.36 29.6962 6.12 29.9842 5.96C30.2775 5.8 30.6055 5.72 30.9682 5.72C31.3842 5.72 31.7522 5.81067 32.0722 5.992C32.3922 6.17333 32.6455 6.42667 32.8322 6.752C33.0189 7.072 33.1122 7.448 33.1122 7.88C33.1122 8.312 33.0189 8.69067 32.8322 9.016C32.6455 9.34133 32.3922 9.59467 32.0722 9.776C31.7522 9.95733 31.3842 10.048 30.9682 10.048ZM28.7202 11.552V5.76H29.4562V6.904L29.4082 7.888L29.4882 8.872V11.552H28.7202ZM30.9042 9.376C31.1762 9.376 31.4189 9.31467 31.6322 9.192C31.8509 9.06933 32.0215 8.896 32.1442 8.672C32.2722 8.44267 32.3362 8.17867 32.3362 7.88C32.3362 7.576 32.2722 7.31467 32.1442 7.096C32.0215 6.872 31.8509 6.69867 31.6322 6.576C31.4189 6.45333 31.1762 6.392 30.9042 6.392C30.6375 6.392 30.3949 6.45333 30.1762 6.576C29.9629 6.69867 29.7922 6.872 29.6642 7.096C29.5415 7.31467 29.4802 7.576 29.4802 7.88C29.4802 8.17867 29.5415 8.44267 29.6642 8.672C29.7922 8.896 29.9629 9.06933 30.1762 9.192C30.3949 9.31467 30.6375 9.376 30.9042 9.376ZM36.0613 10.048C35.608 10.048 35.208 9.95467 34.8613 9.768C34.52 9.58133 34.2533 9.32533 34.0613 9C33.8746 8.67467 33.7813 8.30133 33.7813 7.88C33.7813 7.45867 33.872 7.08533 34.0533 6.76C34.24 6.43467 34.4933 6.18133 34.8133 6C35.1386 5.81333 35.504 5.72 35.9093 5.72C36.32 5.72 36.6826 5.81067 36.9973 5.992C37.312 6.17333 37.5573 6.42933 37.7333 6.76C37.9146 7.08533 38.0053 7.46667 38.0053 7.904C38.0053 7.936 38.0026 7.97333 37.9973 8.016C37.9973 8.05867 37.9946 8.09867 37.9893 8.136H34.3813V7.584H37.5893L37.2773 7.776C37.2826 7.504 37.2266 7.26133 37.1093 7.048C36.992 6.83467 36.8293 6.66933 36.6213 6.552C36.4186 6.42933 36.1813 6.368 35.9093 6.368C35.6426 6.368 35.4053 6.42933 35.1973 6.552C34.9893 6.66933 34.8266 6.83733 34.7093 7.056C34.592 7.26933 34.5333 7.51467 34.5333 7.792V7.92C34.5333 8.20267 34.5973 8.456 34.7253 8.68C34.8586 8.89867 35.0426 9.06933 35.2773 9.192C35.512 9.31467 35.7813 9.376 36.0853 9.376C36.336 9.376 36.5626 9.33333 36.7653 9.248C36.9733 9.16267 37.1546 9.03467 37.3093 8.864L37.7333 9.36C37.5413 9.584 37.3013 9.75467 37.0133 9.872C36.7306 9.98933 36.4133 10.048 36.0613 10.048ZM40.8238 10.048C40.4131 10.048 40.0451 9.95733 39.7198 9.776C39.3998 9.59467 39.1464 9.34133 38.9598 9.016C38.7731 8.69067 38.6798 8.312 38.6798 7.88C38.6798 7.448 38.7731 7.072 38.9598 6.752C39.1464 6.42667 39.3998 6.17333 39.7198 5.992C40.0451 5.81067 40.4131 5.72 40.8238 5.72C41.1811 5.72 41.5038 5.8 41.7918 5.96C42.0798 6.12 42.3091 6.36 42.4798 6.68C42.6558 7 42.7438 7.4 42.7438 7.88C42.7438 8.36 42.6584 8.76 42.4878 9.08C42.3224 9.4 42.0958 9.64267 41.8078 9.808C41.5198 9.968 41.1918 10.048 40.8238 10.048ZM40.8878 9.376C41.1544 9.376 41.3944 9.31467 41.6078 9.192C41.8264 9.06933 41.9971 8.896 42.1198 8.672C42.2478 8.44267 42.3118 8.17867 42.3118 7.88C42.3118 7.576 42.2478 7.31467 42.1198 7.096C41.9971 6.872 41.8264 6.69867 41.6078 6.576C41.3944 6.45333 41.1544 6.392 40.8878 6.392C40.6158 6.392 40.3731 6.45333 40.1598 6.576C39.9464 6.69867 39.7758 6.872 39.6478 7.096C39.5198 7.31467 39.4558 7.576 39.4558 7.88C39.4558 8.17867 39.5198 8.44267 39.6478 8.672C39.7758 8.896 39.9464 9.06933 40.1598 9.192C40.3731 9.31467 40.6158 9.376 40.8878 9.376ZM42.3358 10V8.856L42.3837 7.872L42.3038 6.888V4.064H43.0718V10H42.3358ZM48.9213 10.048C48.5586 10.048 48.2306 9.968 47.9373 9.808C47.6493 9.64267 47.42 9.4 47.2493 9.08C47.084 8.76 47.0013 8.36 47.0013 7.88C47.0013 7.4 47.0866 7 47.2573 6.68C47.4333 6.36 47.6653 6.12 47.9533 5.96C48.2466 5.8 48.5693 5.72 48.9213 5.72C49.3373 5.72 49.7053 5.81067 50.0253 5.992C50.3453 6.17333 50.5986 6.42667 50.7853 6.752C50.972 7.072 51.0653 7.448 51.0653 7.88C51.0653 8.312 50.972 8.69067 50.7853 9.016C50.5986 9.34133 50.3453 9.59467 50.0253 9.776C49.7053 9.95733 49.3373 10.048 48.9213 10.048ZM46.6733 10V4.064H47.4413V6.888L47.3613 7.872L47.4093 8.856V10H46.6733ZM48.8573 9.376C49.1293 9.376 49.372 9.31467 49.5853 9.192C49.804 9.06933 49.9746 8.896 50.0973 8.672C50.2253 8.44267 50.2893 8.17867 50.2893 7.88C50.2893 7.576 50.2253 7.31467 50.0973 7.096C49.9746 6.872 49.804 6.69867 49.5853 6.576C49.372 6.45333 49.1293 6.392 48.8573 6.392C48.5906 6.392 48.348 6.45333 48.1293 6.576C47.916 6.69867 47.7453 6.872 47.6173 7.096C47.4946 7.31467 47.4333 7.576 47.4333 7.88C47.4333 8.17867 47.4946 8.44267 47.6173 8.672C47.7453 8.896 47.916 9.06933 48.1293 9.192C48.348 9.31467 48.5906 9.376 48.8573 9.376ZM52.1933 11.6C51.9906 11.6 51.7933 11.5653 51.6013 11.496C51.4093 11.432 51.2439 11.336 51.1052 11.208L51.4333 10.632C51.5399 10.7333 51.6573 10.8107 51.7853 10.864C51.9133 10.9173 52.0493 10.944 52.1933 10.944C52.3799 10.944 52.5346 10.896 52.6573 10.8C52.7799 10.704 52.8946 10.5333 53.0013 10.288L53.2653 9.704L53.3453 9.608L55.0093 5.76H55.7613L53.7053 10.424C53.5826 10.7227 53.4439 10.9573 53.2893 11.128C53.1399 11.2987 52.9746 11.4187 52.7933 11.488C52.6119 11.5627 52.4119 11.6 52.1933 11.6ZM53.2013 10.136L51.2652 5.76H52.0653L53.7133 9.536L53.2013 10.136Z" fill="#ACACAC"/>
<g clip-path="url(#clip0_1561_48)">
<mask id="path-2-outside-1_1561_48" maskUnits="userSpaceOnUse" x="-1" y="3" width="163" height="32" fill="black">
<rect fill="white" x="-1" y="3" width="163" height="32"/>
<path d="M5.87017 28.5956V18.6507H0V14.9191H16.9339V18.6507H11.0637V28.5956H5.87017Z"/>
<path d="M28.805 28.8529H28.0918C26.4825 28.8529 25.0927 28.7059 23.8857 28.375C22.6788 28.0625 21.7461 27.6765 21.0878 27.1985C20.4112 26.7206 19.8625 26.1691 19.4602 25.5074C19.0396 24.864 18.7653 24.2574 18.6556 23.7059C18.5276 23.1544 18.4727 22.5846 18.4727 21.9779V21.4449C18.4727 20.8382 18.5276 20.2684 18.6373 19.7169C18.747 19.1838 19.0213 18.5956 19.4237 17.9522C19.826 17.3088 20.3563 16.7574 21.0146 16.2978C21.673 15.8382 22.6239 15.4522 23.8309 15.1397C25.0378 14.8272 26.4642 14.6618 28.0918 14.6618H28.805C29.9388 14.6618 30.9628 14.7353 31.9138 14.8824C32.8647 15.0294 33.6511 15.2316 34.2911 15.4522C34.9312 15.6912 35.4981 15.9669 35.9918 16.2978C36.4856 16.6287 36.8696 16.9412 37.1622 17.2721C37.4365 17.6029 37.6559 17.9706 37.8388 18.3382C38.0217 18.7059 38.1314 19.0368 38.1863 19.3309C38.2411 19.625 38.2777 19.9191 38.2777 20.1949V20.4338H32.883C32.4624 19.0368 30.9628 18.3382 28.4026 18.3382C25.367 18.3382 23.8491 19.4044 23.8491 21.5368V21.7574C23.8491 22.1618 23.904 22.5478 24.0503 22.9154C24.1966 23.2831 24.416 23.6507 24.7452 24C25.0744 24.3676 25.5499 24.6434 26.1716 24.8456C26.7934 25.0662 27.5431 25.1581 28.4209 25.1581C29.1707 25.1581 29.829 25.1029 30.4142 24.9559C30.9811 24.8088 31.42 24.6618 31.7126 24.4779C32.0052 24.3125 32.2429 24.0919 32.4441 23.8346C32.627 23.5772 32.755 23.3934 32.7916 23.2831C32.8281 23.1728 32.8647 23.0625 32.9013 22.9154H38.2777V23.2096C38.2777 23.6324 38.2046 24.0551 38.0948 24.4963C37.9668 24.9375 37.6925 25.4154 37.2902 25.9669C36.8696 26.5184 36.3393 26.9963 35.6809 27.4007C35.0226 27.8051 34.1082 28.1544 32.9196 28.4302C31.7309 28.7243 30.3594 28.8529 28.805 28.8529Z"/>
<path d="M52.3798 28.5956H45.4856L38.6096 14.9191H44.498L49.0698 24.4596L53.3673 14.9191H58.762L52.3798 28.5956Z"/>
<path d="M60.5024 14.9191H75.5528V18.2647H65.6228V19.9743H75.3516V23.3015H65.6228V25.1765H75.699V28.5956H60.5024V14.9191Z"/>
<path d="M83.622 28.5956V18.6507H77.7518V14.9191H94.6857V18.6507H88.8155V28.5956H83.622Z"/>
<path d="M102.322 28.5956H97.1281V14.9191H102.322V20.3235L109.015 14.9191H115.47L107.552 21.1324L115.726 28.5956H108.96L102.322 22.4743V28.5956Z"/>
<path d="M128.394 4C127.169 4 126.053 4.09191 125.066 4.25735C124.078 4.42279 123.237 4.64338 122.56 4.90073C121.884 5.15809 121.299 5.48897 120.787 5.875C120.275 6.26103 119.872 6.64706 119.58 7.03309C119.287 7.4375 119.068 7.86029 118.885 8.31985C118.702 8.79779 118.592 9.22059 118.537 9.58824C118.482 9.97426 118.464 10.3787 118.464 10.7831V11.3346C118.464 11.7574 118.482 12.1618 118.537 12.5294C118.592 12.9154 118.702 13.3382 118.885 13.8162C119.068 14.2941 119.287 14.7169 119.58 15.1213C119.872 15.5257 120.275 15.9118 120.787 16.2978C121.299 16.7022 121.884 17.0331 122.56 17.2904C123.237 17.5662 124.078 17.7868 125.066 17.9522C126.053 18.1176 127.169 18.1912 128.394 18.1912H129.217C130.424 18.1912 131.539 18.1176 132.527 17.9522C133.514 17.7868 134.356 17.5662 135.032 17.2904C135.691 17.0331 136.294 16.7022 136.806 16.2978C137.318 15.9118 137.702 15.5257 137.995 15.1213C138.287 14.7169 138.507 14.2941 138.69 13.8162C138.873 13.3382 138.982 12.9154 139.037 12.5294C139.092 12.1618 139.129 11.7574 139.129 11.3346V10.7831C139.129 10.3787 139.092 9.97426 139.037 9.58824C138.982 9.22059 138.873 8.79779 138.69 8.31985C138.507 7.86029 138.287 7.4375 137.995 7.03309C137.702 6.64706 137.3 6.26103 136.788 5.875C136.276 5.48897 135.691 5.15809 135.014 4.90073C134.337 4.64338 133.496 4.42279 132.509 4.25735C131.521 4.09191 130.424 4 129.217 4H128.394ZM133.752 11.1691C133.752 11.5735 133.679 11.9596 133.533 12.3272C133.386 12.6949 133.13 13.0441 132.801 13.375C132.454 13.7243 131.942 14 131.247 14.2022C130.552 14.4044 129.747 14.4963 128.796 14.4963C127.845 14.4963 127.022 14.4044 126.328 14.1838C125.633 13.9816 125.121 13.7059 124.791 13.3566C124.444 13.0074 124.206 12.6581 124.06 12.2904C123.914 11.9228 123.841 11.5368 123.841 11.1324V10.9118C123.841 10.5074 123.895 10.1397 124.042 9.79044C124.188 9.44118 124.426 9.09191 124.773 8.76103C125.102 8.43015 125.614 8.17279 126.309 7.97059C126.986 7.78676 127.809 7.67647 128.796 7.67647C129.747 7.67647 130.552 7.78676 131.247 7.97059C131.923 8.17279 132.435 8.43015 132.783 8.76103C133.13 9.09191 133.386 9.44118 133.533 9.79044C133.679 10.1397 133.752 10.5074 133.752 10.9118V11.1691Z"/>
<path d="M128.394 19.8088C127.169 19.8088 126.053 19.9007 125.066 20.0662C124.078 20.2316 123.237 20.4522 122.56 20.7096C121.884 20.9669 121.299 21.2978 120.787 21.6838C120.275 22.0699 119.872 22.4559 119.58 22.8419C119.287 23.2463 119.068 23.6691 118.885 24.1287C118.702 24.6066 118.592 25.0294 118.537 25.3971C118.482 25.7831 118.464 26.1875 118.464 26.5919V27.1434C118.464 27.5662 118.482 27.9706 118.537 28.3382C118.592 28.7243 118.702 29.1471 118.885 29.625C119.068 30.1029 119.287 30.5257 119.58 30.9301C119.872 31.3346 120.275 31.7206 120.787 32.1066C121.299 32.511 121.884 32.8419 122.56 33.0993C123.237 33.375 124.078 33.5956 125.066 33.761C126.053 33.9265 127.169 34 128.394 34H129.217C130.424 34 131.539 33.9265 132.527 33.761C133.514 33.5956 134.356 33.375 135.032 33.0993C135.691 32.8419 136.294 32.511 136.806 32.1066C137.318 31.7206 137.702 31.3346 137.995 30.9301C138.287 30.5257 138.507 29.6618 138.69 29.1838C138.873 28.7059 138.982 28.7243 139.037 28.3382C139.092 27.9706 139.129 27.5662 139.129 27.1434V26.5919C139.129 26.1875 139.092 25.7831 139.037 25.3971C138.982 25.0294 138.873 24.6066 138.69 24.1287C138.507 23.6691 138.287 23.2463 137.995 22.8419C137.702 22.4559 137.3 22.0699 136.788 21.6838C136.276 21.2978 135.691 20.9669 135.014 20.7096C134.337 20.4522 133.496 20.2316 132.509 20.0662C131.521 19.9007 130.424 19.8088 129.217 19.8088H128.394ZM133.752 26.9779C133.752 27.3824 133.679 27.7684 133.533 28.136C133.386 28.5037 133.13 28.8529 132.801 29.1838C132.454 29.5331 131.942 29.8088 131.247 30.011C130.552 30.2132 129.747 30.3052 128.796 30.3052C127.845 30.3052 127.022 30.2132 126.328 29.9926C125.633 29.7904 125.121 29.5147 124.791 29.1654C124.444 28.8162 124.206 28.4669 124.06 28.0993C123.914 27.7316 123.841 27.3456 123.841 26.9412V26.7206C123.841 26.3162 123.895 25.9485 124.042 25.5993C124.188 25.25 124.426 24.9007 124.773 24.5699C125.102 24.239 125.614 23.9816 126.309 23.7794C126.986 23.5956 127.809 23.4853 128.796 23.4853C129.747 23.4853 130.552 23.5956 131.247 23.7794C131.923 23.9816 132.435 24.239 132.783 24.5699C133.13 24.9007 133.386 25.25 133.533 25.5993C133.679 25.9485 133.752 26.3162 133.752 26.7206V26.9779Z"/>
<path d="M154.618 28.5956H147.724L140.848 14.9191H146.736L151.308 24.4596L155.605 14.9191H161L154.618 28.5956Z"/>
</mask>
<path d="M5.87017 28.5956V18.6507H0V14.9191H16.9339V18.6507H11.0637V28.5956H5.87017Z" fill="url(#paint0_linear_1561_48)"/>
<path d="M28.805 28.8529H28.0918C26.4825 28.8529 25.0927 28.7059 23.8857 28.375C22.6788 28.0625 21.7461 27.6765 21.0878 27.1985C20.4112 26.7206 19.8625 26.1691 19.4602 25.5074C19.0396 24.864 18.7653 24.2574 18.6556 23.7059C18.5276 23.1544 18.4727 22.5846 18.4727 21.9779V21.4449C18.4727 20.8382 18.5276 20.2684 18.6373 19.7169C18.747 19.1838 19.0213 18.5956 19.4237 17.9522C19.826 17.3088 20.3563 16.7574 21.0146 16.2978C21.673 15.8382 22.6239 15.4522 23.8309 15.1397C25.0378 14.8272 26.4642 14.6618 28.0918 14.6618H28.805C29.9388 14.6618 30.9628 14.7353 31.9138 14.8824C32.8647 15.0294 33.6511 15.2316 34.2911 15.4522C34.9312 15.6912 35.4981 15.9669 35.9918 16.2978C36.4856 16.6287 36.8696 16.9412 37.1622 17.2721C37.4365 17.6029 37.6559 17.9706 37.8388 18.3382C38.0217 18.7059 38.1314 19.0368 38.1863 19.3309C38.2411 19.625 38.2777 19.9191 38.2777 20.1949V20.4338H32.883C32.4624 19.0368 30.9628 18.3382 28.4026 18.3382C25.367 18.3382 23.8491 19.4044 23.8491 21.5368V21.7574C23.8491 22.1618 23.904 22.5478 24.0503 22.9154C24.1966 23.2831 24.416 23.6507 24.7452 24C25.0744 24.3676 25.5499 24.6434 26.1716 24.8456C26.7934 25.0662 27.5431 25.1581 28.4209 25.1581C29.1707 25.1581 29.829 25.1029 30.4142 24.9559C30.9811 24.8088 31.42 24.6618 31.7126 24.4779C32.0052 24.3125 32.2429 24.0919 32.4441 23.8346C32.627 23.5772 32.755 23.3934 32.7916 23.2831C32.8281 23.1728 32.8647 23.0625 32.9013 22.9154H38.2777V23.2096C38.2777 23.6324 38.2046 24.0551 38.0948 24.4963C37.9668 24.9375 37.6925 25.4154 37.2902 25.9669C36.8696 26.5184 36.3393 26.9963 35.6809 27.4007C35.0226 27.8051 34.1082 28.1544 32.9196 28.4302C31.7309 28.7243 30.3594 28.8529 28.805 28.8529Z" fill="url(#paint1_linear_1561_48)"/>
<path d="M52.3798 28.5956H45.4856L38.6096 14.9191H44.498L49.0698 24.4596L53.3673 14.9191H58.762L52.3798 28.5956Z" fill="url(#paint2_linear_1561_48)"/>
<path d="M60.5024 14.9191H75.5528V18.2647H65.6228V19.9743H75.3516V23.3015H65.6228V25.1765H75.699V28.5956H60.5024V14.9191Z" fill="url(#paint3_linear_1561_48)"/>
<path d="M83.622 28.5956V18.6507H77.7518V14.9191H94.6857V18.6507H88.8155V28.5956H83.622Z" fill="url(#paint4_linear_1561_48)"/>
<path d="M102.322 28.5956H97.1281V14.9191H102.322V20.3235L109.015 14.9191H115.47L107.552 21.1324L115.726 28.5956H108.96L102.322 22.4743V28.5956Z" fill="url(#paint5_linear_1561_48)"/>
<path d="M128.394 4C127.169 4 126.053 4.09191 125.066 4.25735C124.078 4.42279 123.237 4.64338 122.56 4.90073C121.884 5.15809 121.299 5.48897 120.787 5.875C120.275 6.26103 119.872 6.64706 119.58 7.03309C119.287 7.4375 119.068 7.86029 118.885 8.31985C118.702 8.79779 118.592 9.22059 118.537 9.58824C118.482 9.97426 118.464 10.3787 118.464 10.7831V11.3346C118.464 11.7574 118.482 12.1618 118.537 12.5294C118.592 12.9154 118.702 13.3382 118.885 13.8162C119.068 14.2941 119.287 14.7169 119.58 15.1213C119.872 15.5257 120.275 15.9118 120.787 16.2978C121.299 16.7022 121.884 17.0331 122.56 17.2904C123.237 17.5662 124.078 17.7868 125.066 17.9522C126.053 18.1176 127.169 18.1912 128.394 18.1912H129.217C130.424 18.1912 131.539 18.1176 132.527 17.9522C133.514 17.7868 134.356 17.5662 135.032 17.2904C135.691 17.0331 136.294 16.7022 136.806 16.2978C137.318 15.9118 137.702 15.5257 137.995 15.1213C138.287 14.7169 138.507 14.2941 138.69 13.8162C138.873 13.3382 138.982 12.9154 139.037 12.5294C139.092 12.1618 139.129 11.7574 139.129 11.3346V10.7831C139.129 10.3787 139.092 9.97426 139.037 9.58824C138.982 9.22059 138.873 8.79779 138.69 8.31985C138.507 7.86029 138.287 7.4375 137.995 7.03309C137.702 6.64706 137.3 6.26103 136.788 5.875C136.276 5.48897 135.691 5.15809 135.014 4.90073C134.337 4.64338 133.496 4.42279 132.509 4.25735C131.521 4.09191 130.424 4 129.217 4H128.394ZM133.752 11.1691C133.752 11.5735 133.679 11.9596 133.533 12.3272C133.386 12.6949 133.13 13.0441 132.801 13.375C132.454 13.7243 131.942 14 131.247 14.2022C130.552 14.4044 129.747 14.4963 128.796 14.4963C127.845 14.4963 127.022 14.4044 126.328 14.1838C125.633 13.9816 125.121 13.7059 124.791 13.3566C124.444 13.0074 124.206 12.6581 124.06 12.2904C123.914 11.9228 123.841 11.5368 123.841 11.1324V10.9118C123.841 10.5074 123.895 10.1397 124.042 9.79044C124.188 9.44118 124.426 9.09191 124.773 8.76103C125.102 8.43015 125.614 8.17279 126.309 7.97059C126.986 7.78676 127.809 7.67647 128.796 7.67647C129.747 7.67647 130.552 7.78676 131.247 7.97059C131.923 8.17279 132.435 8.43015 132.783 8.76103C133.13 9.09191 133.386 9.44118 133.533 9.79044C133.679 10.1397 133.752 10.5074 133.752 10.9118V11.1691Z" fill="url(#paint6_linear_1561_48)"/>
<path d="M128.394 19.8088C127.169 19.8088 126.053 19.9007 125.066 20.0662C124.078 20.2316 123.237 20.4522 122.56 20.7096C121.884 20.9669 121.299 21.2978 120.787 21.6838C120.275 22.0699 119.872 22.4559 119.58 22.8419C119.287 23.2463 119.068 23.6691 118.885 24.1287C118.702 24.6066 118.592 25.0294 118.537 25.3971C118.482 25.7831 118.464 26.1875 118.464 26.5919V27.1434C118.464 27.5662 118.482 27.9706 118.537 28.3382C118.592 28.7243 118.702 29.1471 118.885 29.625C119.068 30.1029 119.287 30.5257 119.58 30.9301C119.872 31.3346 120.275 31.7206 120.787 32.1066C121.299 32.511 121.884 32.8419 122.56 33.0993C123.237 33.375 124.078 33.5956 125.066 33.761C126.053 33.9265 127.169 34 128.394 34H129.217C130.424 34 131.539 33.9265 132.527 33.761C133.514 33.5956 134.356 33.375 135.032 33.0993C135.691 32.8419 136.294 32.511 136.806 32.1066C137.318 31.7206 137.702 31.3346 137.995 30.9301C138.287 30.5257 138.507 29.6618 138.69 29.1838C138.873 28.7059 138.982 28.7243 139.037 28.3382C139.092 27.9706 139.129 27.5662 139.129 27.1434V26.5919C139.129 26.1875 139.092 25.7831 139.037 25.3971C138.982 25.0294 138.873 24.6066 138.69 24.1287C138.507 23.6691 138.287 23.2463 137.995 22.8419C137.702 22.4559 137.3 22.0699 136.788 21.6838C136.276 21.2978 135.691 20.9669 135.014 20.7096C134.337 20.4522 133.496 20.2316 132.509 20.0662C131.521 19.9007 130.424 19.8088 129.217 19.8088H128.394ZM133.752 26.9779C133.752 27.3824 133.679 27.7684 133.533 28.136C133.386 28.5037 133.13 28.8529 132.801 29.1838C132.454 29.5331 131.942 29.8088 131.247 30.011C130.552 30.2132 129.747 30.3052 128.796 30.3052C127.845 30.3052 127.022 30.2132 126.328 29.9926C125.633 29.7904 125.121 29.5147 124.791 29.1654C124.444 28.8162 124.206 28.4669 124.06 28.0993C123.914 27.7316 123.841 27.3456 123.841 26.9412V26.7206C123.841 26.3162 123.895 25.9485 124.042 25.5993C124.188 25.25 124.426 24.9007 124.773 24.5699C125.102 24.239 125.614 23.9816 126.309 23.7794C126.986 23.5956 127.809 23.4853 128.796 23.4853C129.747 23.4853 130.552 23.5956 131.247 23.7794C131.923 23.9816 132.435 24.239 132.783 24.5699C133.13 24.9007 133.386 25.25 133.533 25.5993C133.679 25.9485 133.752 26.3162 133.752 26.7206V26.9779Z" fill="url(#paint7_linear_1561_48)"/>
<path d="M154.618 28.5956H147.724L140.848 14.9191H146.736L151.308 24.4596L155.605 14.9191H161L154.618 28.5956Z" fill="url(#paint8_linear_1561_48)"/>
<path d="M5.87017 28.5956V18.6507H0V14.9191H16.9339V18.6507H11.0637V28.5956H5.87017Z" stroke="url(#paint9_linear_1561_48)" stroke-width="0.8" mask="url(#path-2-outside-1_1561_48)"/>
<path d="M28.805 28.8529H28.0918C26.4825 28.8529 25.0927 28.7059 23.8857 28.375C22.6788 28.0625 21.7461 27.6765 21.0878 27.1985C20.4112 26.7206 19.8625 26.1691 19.4602 25.5074C19.0396 24.864 18.7653 24.2574 18.6556 23.7059C18.5276 23.1544 18.4727 22.5846 18.4727 21.9779V21.4449C18.4727 20.8382 18.5276 20.2684 18.6373 19.7169C18.747 19.1838 19.0213 18.5956 19.4237 17.9522C19.826 17.3088 20.3563 16.7574 21.0146 16.2978C21.673 15.8382 22.6239 15.4522 23.8309 15.1397C25.0378 14.8272 26.4642 14.6618 28.0918 14.6618H28.805C29.9388 14.6618 30.9628 14.7353 31.9138 14.8824C32.8647 15.0294 33.6511 15.2316 34.2911 15.4522C34.9312 15.6912 35.4981 15.9669 35.9918 16.2978C36.4856 16.6287 36.8696 16.9412 37.1622 17.2721C37.4365 17.6029 37.6559 17.9706 37.8388 18.3382C38.0217 18.7059 38.1314 19.0368 38.1863 19.3309C38.2411 19.625 38.2777 19.9191 38.2777 20.1949V20.4338H32.883C32.4624 19.0368 30.9628 18.3382 28.4026 18.3382C25.367 18.3382 23.8491 19.4044 23.8491 21.5368V21.7574C23.8491 22.1618 23.904 22.5478 24.0503 22.9154C24.1966 23.2831 24.416 23.6507 24.7452 24C25.0744 24.3676 25.5499 24.6434 26.1716 24.8456C26.7934 25.0662 27.5431 25.1581 28.4209 25.1581C29.1707 25.1581 29.829 25.1029 30.4142 24.9559C30.9811 24.8088 31.42 24.6618 31.7126 24.4779C32.0052 24.3125 32.2429 24.0919 32.4441 23.8346C32.627 23.5772 32.755 23.3934 32.7916 23.2831C32.8281 23.1728 32.8647 23.0625 32.9013 22.9154H38.2777V23.2096C38.2777 23.6324 38.2046 24.0551 38.0948 24.4963C37.9668 24.9375 37.6925 25.4154 37.2902 25.9669C36.8696 26.5184 36.3393 26.9963 35.6809 27.4007C35.0226 27.8051 34.1082 28.1544 32.9196 28.4302C31.7309 28.7243 30.3594 28.8529 28.805 28.8529Z" stroke="url(#paint10_linear_1561_48)" stroke-width="0.8" mask="url(#path-2-outside-1_1561_48)"/>
<path d="M52.3798 28.5956H45.4856L38.6096 14.9191H44.498L49.0698 24.4596L53.3673 14.9191H58.762L52.3798 28.5956Z" stroke="url(#paint11_linear_1561_48)" stroke-width="0.8" mask="url(#path-2-outside-1_1561_48)"/>
<path d="M60.5024 14.9191H75.5528V18.2647H65.6228V19.9743H75.3516V23.3015H65.6228V25.1765H75.699V28.5956H60.5024V14.9191Z" stroke="url(#paint12_linear_1561_48)" stroke-width="0.8" mask="url(#path-2-outside-1_1561_48)"/>
<path d="M83.622 28.5956V18.6507H77.7518V14.9191H94.6857V18.6507H88.8155V28.5956H83.622Z" stroke="url(#paint13_linear_1561_48)" stroke-width="0.8" mask="url(#path-2-outside-1_1561_48)"/>
<path d="M102.322 28.5956H97.1281V14.9191H102.322V20.3235L109.015 14.9191H115.47L107.552 21.1324L115.726 28.5956H108.96L102.322 22.4743V28.5956Z" stroke="url(#paint14_linear_1561_48)" stroke-width="0.8" mask="url(#path-2-outside-1_1561_48)"/>
<path d="M128.394 4C127.169 4 126.053 4.09191 125.066 4.25735C124.078 4.42279 123.237 4.64338 122.56 4.90073C121.884 5.15809 121.299 5.48897 120.787 5.875C120.275 6.26103 119.872 6.64706 119.58 7.03309C119.287 7.4375 119.068 7.86029 118.885 8.31985C118.702 8.79779 118.592 9.22059 118.537 9.58824C118.482 9.97426 118.464 10.3787 118.464 10.7831V11.3346C118.464 11.7574 118.482 12.1618 118.537 12.5294C118.592 12.9154 118.702 13.3382 118.885 13.8162C119.068 14.2941 119.287 14.7169 119.58 15.1213C119.872 15.5257 120.275 15.9118 120.787 16.2978C121.299 16.7022 121.884 17.0331 122.56 17.2904C123.237 17.5662 124.078 17.7868 125.066 17.9522C126.053 18.1176 127.169 18.1912 128.394 18.1912H129.217C130.424 18.1912 131.539 18.1176 132.527 17.9522C133.514 17.7868 134.356 17.5662 135.032 17.2904C135.691 17.0331 136.294 16.7022 136.806 16.2978C137.318 15.9118 137.702 15.5257 137.995 15.1213C138.287 14.7169 138.507 14.2941 138.69 13.8162C138.873 13.3382 138.982 12.9154 139.037 12.5294C139.092 12.1618 139.129 11.7574 139.129 11.3346V10.7831C139.129 10.3787 139.092 9.97426 139.037 9.58824C138.982 9.22059 138.873 8.79779 138.69 8.31985C138.507 7.86029 138.287 7.4375 137.995 7.03309C137.702 6.64706 137.3 6.26103 136.788 5.875C136.276 5.48897 135.691 5.15809 135.014 4.90073C134.337 4.64338 133.496 4.42279 132.509 4.25735C131.521 4.09191 130.424 4 129.217 4H128.394ZM133.752 11.1691C133.752 11.5735 133.679 11.9596 133.533 12.3272C133.386 12.6949 133.13 13.0441 132.801 13.375C132.454 13.7243 131.942 14 131.247 14.2022C130.552 14.4044 129.747 14.4963 128.796 14.4963C127.845 14.4963 127.022 14.4044 126.328 14.1838C125.633 13.9816 125.121 13.7059 124.791 13.3566C124.444 13.0074 124.206 12.6581 124.06 12.2904C123.914 11.9228 123.841 11.5368 123.841 11.1324V10.9118C123.841 10.5074 123.895 10.1397 124.042 9.79044C124.188 9.44118 124.426 9.09191 124.773 8.76103C125.102 8.43015 125.614 8.17279 126.309 7.97059C126.986 7.78676 127.809 7.67647 128.796 7.67647C129.747 7.67647 130.552 7.78676 131.247 7.97059C131.923 8.17279 132.435 8.43015 132.783 8.76103C133.13 9.09191 133.386 9.44118 133.533 9.79044C133.679 10.1397 133.752 10.5074 133.752 10.9118V11.1691Z" stroke="url(#paint15_linear_1561_48)" stroke-width="0.8" mask="url(#path-2-outside-1_1561_48)"/>
<path d="M128.394 19.8088C127.169 19.8088 126.053 19.9007 125.066 20.0662C124.078 20.2316 123.237 20.4522 122.56 20.7096C121.884 20.9669 121.299 21.2978 120.787 21.6838C120.275 22.0699 119.872 22.4559 119.58 22.8419C119.287 23.2463 119.068 23.6691 118.885 24.1287C118.702 24.6066 118.592 25.0294 118.537 25.3971C118.482 25.7831 118.464 26.1875 118.464 26.5919V27.1434C118.464 27.5662 118.482 27.9706 118.537 28.3382C118.592 28.7243 118.702 29.1471 118.885 29.625C119.068 30.1029 119.287 30.5257 119.58 30.9301C119.872 31.3346 120.275 31.7206 120.787 32.1066C121.299 32.511 121.884 32.8419 122.56 33.0993C123.237 33.375 124.078 33.5956 125.066 33.761C126.053 33.9265 127.169 34 128.394 34H129.217C130.424 34 131.539 33.9265 132.527 33.761C133.514 33.5956 134.356 33.375 135.032 33.0993C135.691 32.8419 136.294 32.511 136.806 32.1066C137.318 31.7206 137.702 31.3346 137.995 30.9301C138.287 30.5257 138.507 29.6618 138.69 29.1838C138.873 28.7059 138.982 28.7243 139.037 28.3382C139.092 27.9706 139.129 27.5662 139.129 27.1434V26.5919C139.129 26.1875 139.092 25.7831 139.037 25.3971C138.982 25.0294 138.873 24.6066 138.69 24.1287C138.507 23.6691 138.287 23.2463 137.995 22.8419C137.702 22.4559 137.3 22.0699 136.788 21.6838C136.276 21.2978 135.691 20.9669 135.014 20.7096C134.337 20.4522 133.496 20.2316 132.509 20.0662C131.521 19.9007 130.424 19.8088 129.217 19.8088H128.394ZM133.752 26.9779C133.752 27.3824 133.679 27.7684 133.533 28.136C133.386 28.5037 133.13 28.8529 132.801 29.1838C132.454 29.5331 131.942 29.8088 131.247 30.011C130.552 30.2132 129.747 30.3052 128.796 30.3052C127.845 30.3052 127.022 30.2132 126.328 29.9926C125.633 29.7904 125.121 29.5147 124.791 29.1654C124.444 28.8162 124.206 28.4669 124.06 28.0993C123.914 27.7316 123.841 27.3456 123.841 26.9412V26.7206C123.841 26.3162 123.895 25.9485 124.042 25.5993C124.188 25.25 124.426 24.9007 124.773 24.5699C125.102 24.239 125.614 23.9816 126.309 23.7794C126.986 23.5956 127.809 23.4853 128.796 23.4853C129.747 23.4853 130.552 23.5956 131.247 23.7794C131.923 23.9816 132.435 24.239 132.783 24.5699C133.13 24.9007 133.386 25.25 133.533 25.5993C133.679 25.9485 133.752 26.3162 133.752 26.7206V26.9779Z" stroke="url(#paint16_linear_1561_48)" stroke-width="0.8" mask="url(#path-2-outside-1_1561_48)"/>
<path d="M154.618 28.5956H147.724L140.848 14.9191H146.736L151.308 24.4596L155.605 14.9191H161L154.618 28.5956Z" stroke="url(#paint17_linear_1561_48)" stroke-width="0.8" mask="url(#path-2-outside-1_1561_48)"/>
</g>
<defs>
<linearGradient id="paint0_linear_1561_48" x1="150.96" y1="9.66173" x2="150.96" y2="33.7426" gradientUnits="userSpaceOnUse">
<stop stop-color="white"/>
<stop offset="1" stop-color="#353535" stop-opacity="0"/>
</linearGradient>
<linearGradient id="paint1_linear_1561_48" x1="150.96" y1="9.66173" x2="150.96" y2="33.7426" gradientUnits="userSpaceOnUse">
<stop stop-color="white"/>
<stop offset="1" stop-color="#353535" stop-opacity="0"/>
</linearGradient>
<linearGradient id="paint2_linear_1561_48" x1="150.96" y1="9.66173" x2="150.96" y2="33.7426" gradientUnits="userSpaceOnUse">
<stop stop-color="white"/>
<stop offset="1" stop-color="#353535" stop-opacity="0"/>
</linearGradient>
<linearGradient id="paint3_linear_1561_48" x1="150.96" y1="9.66173" x2="150.96" y2="33.7426" gradientUnits="userSpaceOnUse">
<stop stop-color="white"/>
<stop offset="1" stop-color="#353535" stop-opacity="0"/>
</linearGradient>
<linearGradient id="paint4_linear_1561_48" x1="150.96" y1="9.66173" x2="150.96" y2="33.7426" gradientUnits="userSpaceOnUse">
<stop stop-color="white"/>
<stop offset="1" stop-color="#353535" stop-opacity="0"/>
</linearGradient>
<linearGradient id="paint5_linear_1561_48" x1="150.96" y1="9.66173" x2="150.96" y2="33.7426" gradientUnits="userSpaceOnUse">
<stop stop-color="white"/>
<stop offset="1" stop-color="#353535" stop-opacity="0"/>
</linearGradient>
<linearGradient id="paint6_linear_1561_48" x1="150.96" y1="9.66173" x2="150.96" y2="33.7426" gradientUnits="userSpaceOnUse">
<stop stop-color="white"/>
<stop offset="1" stop-color="#353535" stop-opacity="0"/>
</linearGradient>
<linearGradient id="paint7_linear_1561_48" x1="150.96" y1="9.66173" x2="150.96" y2="33.7426" gradientUnits="userSpaceOnUse">
<stop stop-color="white"/>
<stop offset="1" stop-color="#353535" stop-opacity="0"/>
</linearGradient>
<linearGradient id="paint8_linear_1561_48" x1="150.96" y1="9.66173" x2="150.96" y2="33.7426" gradientUnits="userSpaceOnUse">
<stop stop-color="white"/>
<stop offset="1" stop-color="#353535" stop-opacity="0"/>
</linearGradient>
<linearGradient id="paint9_linear_1561_48" x1="150.96" y1="9.66173" x2="150.96" y2="33.7426" gradientUnits="userSpaceOnUse">
<stop stop-color="white"/>
<stop offset="1" stop-color="#353535" stop-opacity="0"/>
</linearGradient>
<linearGradient id="paint10_linear_1561_48" x1="150.96" y1="9.66173" x2="150.96" y2="33.7426" gradientUnits="userSpaceOnUse">
<stop stop-color="white"/>
<stop offset="1" stop-color="#353535" stop-opacity="0"/>
</linearGradient>
<linearGradient id="paint11_linear_1561_48" x1="150.96" y1="9.66173" x2="150.96" y2="33.7426" gradientUnits="userSpaceOnUse">
<stop stop-color="white"/>
<stop offset="1" stop-color="#353535" stop-opacity="0"/>
</linearGradient>
<linearGradient id="paint12_linear_1561_48" x1="150.96" y1="9.66173" x2="150.96" y2="33.7426" gradientUnits="userSpaceOnUse">
<stop stop-color="white"/>
<stop offset="1" stop-color="#353535" stop-opacity="0"/>
</linearGradient>
<linearGradient id="paint13_linear_1561_48" x1="150.96" y1="9.66173" x2="150.96" y2="33.7426" gradientUnits="userSpaceOnUse">
<stop stop-color="white"/>
<stop offset="1" stop-color="#353535" stop-opacity="0"/>
</linearGradient>
<linearGradient id="paint14_linear_1561_48" x1="150.96" y1="9.66173" x2="150.96" y2="33.7426" gradientUnits="userSpaceOnUse">
<stop stop-color="white"/>
<stop offset="1" stop-color="#353535" stop-opacity="0"/>
</linearGradient>
<linearGradient id="paint15_linear_1561_48" x1="150.96" y1="9.66173" x2="150.96" y2="33.7426" gradientUnits="userSpaceOnUse">
<stop stop-color="white"/>
<stop offset="1" stop-color="#353535" stop-opacity="0"/>
</linearGradient>
<linearGradient id="paint16_linear_1561_48" x1="150.96" y1="9.66173" x2="150.96" y2="33.7426" gradientUnits="userSpaceOnUse">
<stop stop-color="white"/>
<stop offset="1" stop-color="#353535" stop-opacity="0"/>
</linearGradient>
<linearGradient id="paint17_linear_1561_48" x1="150.96" y1="9.66173" x2="150.96" y2="33.7426" gradientUnits="userSpaceOnUse">
<stop stop-color="white"/>
<stop offset="1" stop-color="#353535" stop-opacity="0"/>
</linearGradient>
<clipPath id="clip0_1561_48">
<rect width="162" height="16" fill="white" transform="translate(0 14)"/>
</clipPath>
</defs>
</svg>
