<svg xmlns="http://www.w3.org/2000/svg" width="24" height="24" viewBox="0 0 24 24">
  <g clip-path="url(#clip0_1572_89)">
    <mask id="mask0_1572_89" style="mask-type:luminance" maskUnits="userSpaceOnUse" x="0" y="0" width="24" height="24">
      <path d="M16.9 0H7.1C3.17878 0 0 3.17878 0 7.1V16.9C0 20.8212 3.17878 24 7.1 24H16.9C20.8212 24 24 20.8212 24 16.9V7.1C24 3.17878 20.8212 0 16.9 0Z" fill="white"/>
    </mask>
    <g mask="url(#mask0_1572_89)">
      <path d="M16.9 0H7.1C3.17878 0 0 3.17878 0 7.1V16.9C0 20.8212 3.17878 24 7.1 24H16.9C20.8212 24 24 20.8212 24 16.9V7.1C24 3.17878 20.8212 0 16.9 0Z" />
      <path d="M3.03894 24.123H7.56202V12.0615H11.6611L12.1087 7.89183H7.56202V5.81875C7.56202 5.28478 7.64054 4.87644 7.7976 4.59375C7.95465 4.31106 8.41795 4.16971 9.1875 4.16971H12.0615V0H7.93894C5.94439 0 4.62909 0.486858 3.99303 1.46058C3.35697 2.4343 3.03894 3.76923 3.03894 5.46538V7.89183L0 7.91538V12.0615H3.03894V24.123Z" fill="white"/>
    </g>
  </g>
  <defs>
    <clipPath id="clip0_1572_89">
      <rect width="24" height="24" fill="white"/>
    </clipPath>
  </defs>
</svg>