<svg width="24" height="24" viewBox="0 0 24 24"  xmlns="http://www.w3.org/2000/svg">
<path d="M12 2.15625C13.6094 2.15625 14.6602 2.16016 15.1523 2.16797C15.6445 2.17578 16.2109 2.19531 16.8516 2.22656C17.4297 2.25781 17.8906 2.31641 18.2344 2.40234C18.5781 2.48828 18.8594 2.57031 19.0781 2.64844C19.3594 2.75781 19.6055 2.88281 19.8164 3.02344C20.0273 3.16406 20.2422 3.33594 20.4609 3.53906C20.6641 3.75781 20.8359 3.97266 20.9766 4.18359C21.1172 4.39453 21.2422 4.64062 21.3516 4.92188C21.4297 5.14062 21.5117 5.42188 21.5977 5.76562C21.6836 6.10938 21.7422 6.57031 21.7734 7.14844C21.8047 7.78906 21.8242 8.35547 21.832 8.84766C21.8398 9.33984 21.8438 10.3906 21.8438 12C21.8438 13.6094 21.8398 14.6602 21.832 15.1523C21.8242 15.6445 21.8047 16.2109 21.7734 16.8516C21.7422 17.4297 21.6836 17.8906 21.5977 18.2344C21.5117 18.5781 21.4297 18.8594 21.3516 19.0781C21.2422 19.3594 21.1172 19.6055 20.9766 19.8164C20.8359 20.0273 20.6641 20.2422 20.4609 20.4609C20.2422 20.6641 20.0273 20.8359 19.8164 20.9766C19.6055 21.1172 19.3594 21.2422 19.0781 21.3516C18.8594 21.4297 18.5781 21.5117 18.2344 21.5977C17.8906 21.6836 17.4297 21.7422 16.8516 21.7734C16.2109 21.8047 15.6445 21.8242 15.1523 21.832C14.6602 21.8398 13.6094 21.8438 12 21.8438C10.3906 21.8438 9.33984 21.8398 8.84766 21.832C8.35547 21.8242 7.78906 21.8047 7.14844 21.7734C6.57031 21.7422 6.10938 21.6836 5.76562 21.5977C5.42188 21.5117 5.14062 21.4297 4.92188 21.3516C4.64062 21.2422 4.39453 21.1172 4.18359 20.9766C3.97266 20.8359 3.75781 20.6641 3.53906 20.4609C3.33594 20.2422 3.16406 20.0273 3.02344 19.8164C2.88281 19.6055 2.75781 19.3594 2.64844 19.0781C2.57031 18.8594 2.48828 18.5781 2.40234 18.2344C2.31641 17.8906 2.25781 17.4297 2.22656 16.8516C2.19531 16.2109 2.17578 15.6445 2.16797 15.1523C2.16016 14.6602 2.15625 13.6094 2.15625 12C2.15625 10.3906 2.16016 9.33984 2.16797 8.84766C2.17578 8.35547 2.19531 7.78906 2.22656 7.14844C2.25781 6.57031 2.31641 6.10938 2.40234 5.76562C2.48828 5.42188 2.57031 5.14062 2.64844 4.92188C2.75781 4.64062 2.88281 4.39453 3.02344 4.18359C3.16406 3.97266 3.33594 3.75781 3.53906 3.53906C3.75781 3.33594 3.97266 3.16406 4.18359 3.02344C4.39453 2.88281 4.64062 2.75781 4.92188 2.64844C5.14062 2.57031 5.42188 2.48828 5.76562 2.40234C6.10938 2.31641 6.57031 2.25781 7.14844 2.22656C7.78906 2.19531 8.35547 2.17578 8.84766 2.16797C9.33984 2.16016 10.3906 2.15625 12 2.15625ZM12 0C10.375 0 9.30469 0.00390625 8.78906 0.0117188C8.27344 0.0195312 7.69531 0.0390625 7.05469 0.0703125C6.41406 0.101562 5.86328 0.164062 5.40234 0.257812C4.94141 0.351562 4.52344 0.476562 4.14844 0.632812C3.74219 0.789062 3.36719 0.976562 3.02344 1.19531C2.67969 1.41406 2.34375 1.6875 2.01562 2.01562C1.6875 2.34375 1.41406 2.67969 1.19531 3.02344C0.976562 3.36719 0.789062 3.74219 0.632812 4.14844C0.476562 4.52344 0.351562 4.94141 0.257812 5.40234C0.164062 5.86328 0.101562 6.41406 0.0703125 7.05469C0.0390625 7.69531 0.0195312 8.27344 0.0117188 8.78906C0.00390625 9.30469 0 10.375 0 12C0 13.625 0.00390625 14.6953 0.0117188 15.2109C0.0195312 15.7266 0.0390625 16.3047 0.0703125 16.9453C0.101562 17.5859 0.164062 18.1367 0.257812 18.5977C0.351562 19.0586 0.476562 19.4766 0.632812 19.8516C0.789062 20.2578 0.976562 20.6328 1.19531 20.9766C1.41406 21.3203 1.6875 21.6562 2.01562 21.9844C2.34375 22.3125 2.67969 22.5859 3.02344 22.8047C3.36719 23.0234 3.74219 23.2109 4.14844 23.3672C4.52344 23.5234 4.94141 23.6484 5.40234 23.7422C5.86328 23.8359 6.41406 23.8984 7.05469 23.9297C7.69531 23.9609 8.27344 23.9805 8.78906 23.9883C9.30469 23.9961 10.375 24 12 24C13.625 24 14.6953 23.9961 15.2109 23.9883C15.7266 23.9805 16.3047 23.9609 16.9453 23.9297C17.5859 23.8984 18.1367 23.8359 18.5977 23.7422C19.0586 23.6484 19.4766 23.5234 19.8516 23.3672C20.2578 23.2109 20.6328 23.0234 20.9766 22.8047C21.3203 22.5859 21.6562 22.3125 21.9844 21.9844C22.3125 21.6562 22.5859 21.3203 22.8047 20.9766C23.0234 20.6328 23.2109 20.2578 23.3672 19.8516C23.5234 19.4766 23.6484 19.0586 23.7422 18.5977C23.8359 18.1367 23.8984 17.5859 23.9297 16.9453C23.9609 16.3047 23.9805 15.7266 23.9883 15.2109C23.9961 14.6953 24 13.625 24 12C24 10.375 23.9961 9.30469 23.9883 8.78906C23.9805 8.27344 23.9609 7.69531 23.9297 7.05469C23.8984 6.41406 23.8359 5.86328 23.7422 5.40234C23.6484 4.94141 23.5234 4.52344 23.3672 4.14844C23.2109 3.74219 23.0234 3.36719 22.8047 3.02344C22.5859 2.67969 22.3125 2.34375 21.9844 2.01562C21.6562 1.6875 21.3203 1.41406 20.9766 1.19531C20.6328 0.976562 20.2578 0.789062 19.8516 0.632812C19.4766 0.476562 19.0586 0.351562 18.5977 0.257812C18.1367 0.164062 17.5859 0.101562 16.9453 0.0703125C16.3047 0.0390625 15.7266 0.0195312 15.2109 0.0117188C14.6953 0.00390625 13.625 0 12 0ZM12 5.83594C11.1562 5.83594 10.3594 6 9.60938 6.32812C8.85938 6.64062 8.20312 7.07812 7.64062 7.64062C7.07812 8.20312 6.64062 8.85938 6.32812 9.60938C6 10.3594 5.83594 11.1562 5.83594 12C5.83594 12.8438 6 13.6406 6.32812 14.3906C6.64062 15.1406 7.07812 15.7969 7.64062 16.3594C8.20312 16.9219 8.85938 17.3594 9.60938 17.6719C10.3594 18 11.1562 18.1641 12 18.1641C12.8438 18.1641 13.6406 18 14.3906 17.6719C15.1406 17.3594 15.7969 16.9219 16.3594 16.3594C16.9219 15.7969 17.3594 15.1406 17.6719 14.3906C18 13.6406 18.1641 12.8438 18.1641 12C18.1641 11.1562 18 10.3594 17.6719 9.60938C17.3594 8.85938 16.9219 8.20312 16.3594 7.64062C15.7969 7.07812 15.1406 6.64062 14.3906 6.32812C13.6406 6 12.8438 5.83594 12 5.83594ZM12 16.0078C10.8906 16.0078 9.94531 15.6172 9.16406 14.8359C8.38281 14.0547 7.99219 13.1094 7.99219 12C7.99219 10.8906 8.38281 9.94531 9.16406 9.16406C9.94531 8.38281 10.8906 7.99219 12 7.99219C13.1094 7.99219 14.0547 8.38281 14.8359 9.16406C15.6172 9.94531 16.0078 10.8906 16.0078 12C16.0078 13.1094 15.6172 14.0547 14.8359 14.8359C14.0547 15.6172 13.1094 16.0078 12 16.0078ZM19.8516 5.60156C19.8516 5.99219 19.7109 6.32812 19.4297 6.60938C19.1484 6.89062 18.8047 7.03125 18.3984 7.03125C18.0078 7.03125 17.6719 6.89062 17.3906 6.60938C17.1094 6.32812 16.9688 5.99219 16.9688 5.60156C16.9688 5.19531 17.1094 4.85156 17.3906 4.57031C17.6719 4.28906 18.0078 4.14844 18.3984 4.14844C18.8047 4.14844 19.1484 4.28906 19.4297 4.57031C19.7109 4.85156 19.8516 5.19531 19.8516 5.60156Z" />
</svg>
