<svg width="203" height="15" viewBox="0 0 203 15"  xmlns="http://www.w3.org/2000/svg">
<path d="M0 14.8319L6.02051 0.12605H7.90073L13.9402 14.8319H11.9461L6.57128 1.30252H7.33097L1.95619 14.8319H0ZM2.56394 11.1555L3.07673 9.47479H10.5596L11.1104 11.1555H2.56394Z" />
<path d="M19.342 14.8319V0.12605H21.2412V13.0042H28.4392V14.8319H19.342Z" />
<path d="M39.3223 15C37.5751 15 36.2013 14.4468 35.201 13.3403C34.2008 12.2339 33.7007 10.6162 33.7007 8.4874V0.12605H35.5999V8.40336C35.5999 10.042 35.9227 11.2395 36.5685 11.9958C37.2269 12.7521 38.1512 13.1303 39.3413 13.1303C40.5442 13.1303 41.4684 12.7521 42.1142 11.9958C42.7726 11.2395 43.1018 10.042 43.1018 8.40336V0.12605H44.944V8.4874C44.944 10.6162 44.4439 12.2339 43.4436 13.3403C42.456 14.4468 41.0823 15 39.3223 15Z" />
<path d="M52.2563 14.8319V0.12605H53.8136L59.7772 11.2395H58.9415L64.8291 0.12605H66.3864L66.4054 14.8319H64.5822L64.5632 3.29832H65L59.7582 13.0462H58.8845L53.6047 3.29832H54.0795V14.8319H52.2563Z" />
<path d="M79.7584 14.958C78.7581 14.958 77.8338 14.7759 76.9855 14.4118C76.1372 14.0336 75.4028 13.5084 74.7824 12.8361C74.162 12.1639 73.6746 11.3726 73.32 10.4622C72.9782 9.55182 72.8073 8.55742 72.8073 7.47899C72.8073 6.40056 72.9782 5.40616 73.32 4.4958C73.6746 3.58543 74.162 2.79412 74.7824 2.12185C75.4155 1.44958 76.1562 0.931372 77.0045 0.567227C77.8528 0.189076 78.7771 0 79.7774 0C80.7396 0 81.6449 0.182073 82.4933 0.546219C83.3416 0.896359 84.0569 1.42857 84.6394 2.14286L83.7467 3.13025C83.2023 2.51401 82.6009 2.07283 81.9425 1.80672C81.2841 1.52661 80.5751 1.38655 79.8154 1.38655C79.0177 1.38655 78.277 1.54062 77.5933 1.84874C76.9096 2.14286 76.3145 2.57003 75.808 3.13025C75.3016 3.67647 74.9027 4.32073 74.6115 5.06302C74.333 5.79132 74.1937 6.59664 74.1937 7.47899C74.1937 8.36135 74.333 9.17367 74.6115 9.91597C74.9027 10.6443 75.3016 11.2885 75.808 11.8487C76.3145 12.395 76.9096 12.8221 77.5933 13.1303C78.277 13.4244 79.0177 13.5714 79.8154 13.5714C80.5751 13.5714 81.2841 13.4314 81.9425 13.1513C82.6009 12.8712 83.2023 12.423 83.7467 11.8067L84.6394 12.7941C84.0569 13.5084 83.3416 14.0476 82.4933 14.4118C81.6449 14.7759 80.7333 14.958 79.7584 14.958Z" />
<path d="M96.5873 14.958C95.5871 14.958 94.6565 14.7759 93.7955 14.4118C92.9472 14.0336 92.2065 13.5084 91.5734 12.8361C90.953 12.1499 90.4655 11.3585 90.111 10.4622C89.7692 9.55182 89.5982 8.55742 89.5982 7.47899C89.5982 6.40056 89.7692 5.41317 90.111 4.51681C90.4655 3.60644 90.953 2.81513 91.5734 2.14286C92.2065 1.45658 92.9472 0.931372 93.7955 0.567227C94.6438 0.189076 95.5744 0 96.5873 0C97.5876 0 98.5119 0.189076 99.3602 0.567227C100.209 0.931372 100.943 1.44958 101.563 2.12185C102.196 2.79412 102.684 3.58543 103.026 4.4958C103.38 5.40616 103.557 6.40056 103.557 7.47899C103.557 8.55742 103.38 9.55182 103.026 10.4622C102.684 11.3726 102.196 12.1639 101.563 12.8361C100.943 13.5084 100.209 14.0336 99.3602 14.4118C98.5119 14.7759 97.5876 14.958 96.5873 14.958ZM96.5873 13.5714C97.385 13.5714 98.1194 13.4244 98.7904 13.1303C99.4742 12.8221 100.063 12.395 100.557 11.8487C101.063 11.2885 101.456 10.6443 101.734 9.91597C102.013 9.17367 102.152 8.36135 102.152 7.47899C102.152 6.59664 102.013 5.79132 101.734 5.06302C101.456 4.32073 101.063 3.67647 100.557 3.13025C100.063 2.57003 99.4742 2.14286 98.7904 1.84874C98.1194 1.54062 97.385 1.38655 96.5873 1.38655C95.7897 1.38655 95.049 1.54062 94.3653 1.84874C93.6815 2.14286 93.0865 2.57003 92.58 3.13025C92.0862 3.67647 91.6937 4.32073 91.4025 5.06302C91.1239 5.79132 90.9847 6.59664 90.9847 7.47899C90.9847 8.34734 91.1239 9.15266 91.4025 9.89496C91.6937 10.6373 92.0862 11.2885 92.58 11.8487C93.0865 12.395 93.6815 12.8221 94.3653 13.1303C95.049 13.4244 95.7897 13.5714 96.5873 13.5714Z" />
<path d="M110.126 14.8319V0.12605H111.285L117.362 11.5966H116.754L122.775 0.12605H123.934V14.8319H122.585V2.45798H122.908L117.362 12.9622H116.697L111.114 2.45798H111.475V14.8319H110.126Z" />
<path d="M131.684 14.8319V0.12605H136.66C137.787 0.12605 138.755 0.329132 139.566 0.735295C140.376 1.12745 140.996 1.70168 141.427 2.45798C141.87 3.20028 142.091 4.10364 142.091 5.16807C142.091 6.20448 141.87 7.10084 141.427 7.85714C140.996 8.59944 140.376 9.17367 139.566 9.57983C138.755 9.98599 137.787 10.1891 136.66 10.1891H132.462L133.089 9.45378V14.8319H131.684ZM133.089 9.57983L132.462 8.82353H136.622C137.951 8.82353 138.958 8.5084 139.641 7.87815C140.338 7.23389 140.686 6.33053 140.686 5.16807C140.686 3.9916 140.338 3.08123 139.641 2.43697C138.958 1.79272 137.951 1.47059 136.622 1.47059H132.462L133.089 0.735295V9.57983Z" />
<path d="M148.549 14.8319V0.12605H149.954V13.4874H157.399V14.8319H148.549Z" />
<path d="M164.405 6.70168H171.432V8.02521H164.405V6.70168ZM164.557 13.4874H172.552V14.8319H163.151V0.12605H172.268V1.47059H164.557V13.4874Z" />
<path d="M181.858 14.8319V1.47059H177.186V0.12605H187.935V1.47059H183.263V14.8319H181.858Z" />
<path d="M194.852 6.70168H201.879V8.02521H194.852V6.70168ZM195.004 13.4874H203V14.8319H193.599V0.12605H202.715V1.47059H195.004V13.4874Z" />
</svg>
