<svg width="20" height="17" viewBox="0 0 20 17"  xmlns="http://www.w3.org/2000/svg">
<path d="M8.98633 2.05078C8.06836 2.57812 7.32617 3.03711 6.75977 3.42773C6.19336 3.79883 5.61719 4.29688 5.03125 4.92188C4.48438 5.50781 4.06445 6.12305 3.77148 6.76758C3.47852 7.41211 3.27344 8.24219 3.15625 9.25781H4.5625C5.77344 9.25781 6.7207 9.56055 7.4043 10.166C8.10742 10.752 8.45898 11.6211 8.45898 12.7734C8.45898 13.5938 8.14648 14.3652 7.52148 15.0879C6.91602 15.791 6.07617 16.1426 5.00195 16.1426C3.32227 16.1426 2.12109 15.5957 1.39844 14.502C0.675781 13.3887 0.314453 11.9336 0.314453 10.1367C0.314453 8.86719 0.587891 7.71484 1.13477 6.67969C1.68164 5.625 2.3457 4.6875 3.12695 3.86719C3.92773 3.02734 4.77734 2.31445 5.67578 1.72852C6.57422 1.14258 7.32617 0.664063 7.93164 0.292969L8.98633 2.05078ZM19.8262 2.05078C18.9082 2.57812 18.166 3.03711 17.5996 3.42773C17.0332 3.79883 16.457 4.29688 15.8711 4.92188C15.3047 5.52734 14.875 6.15234 14.582 6.79688C14.3086 7.42187 14.1133 8.24219 13.9961 9.25781H15.4023C16.6133 9.25781 17.5605 9.56055 18.2441 10.166C18.9473 10.752 19.2988 11.6211 19.2988 12.7734C19.2988 13.5938 18.9863 14.3652 18.3613 15.0879C17.7559 15.791 16.916 16.1426 15.8418 16.1426C14.1621 16.1426 12.9609 15.5957 12.2383 14.502C11.5156 13.3887 11.1543 11.9336 11.1543 10.1367C11.1543 8.86719 11.4277 7.71484 11.9746 6.67969C12.5215 5.625 13.1855 4.6875 13.9668 3.86719C14.7676 3.02734 15.6172 2.31445 16.5156 1.72852C17.4141 1.14258 18.166 0.664063 18.7715 0.292969L19.8262 2.05078Z" />
</svg>
