<svg width="18" height="17" viewBox="0 0 18 17"  xmlns="http://www.w3.org/2000/svg">
<path fill-rule="evenodd" clip-rule="evenodd" d="M16.9717 6.19775C17.0381 6.20886 17.1113 6.22595 17.1816 6.25134V7.23059L13.627 10.6978L14.4902 15.7198L14.498 15.7971L14.5 15.9211C14.5 16.1821 14.3799 16.4233 14.0889 16.4233C13.998 16.4233 13.9072 16.4023 13.8213 16.3684C13.7744 16.3501 13.7295 16.3279 13.6865 16.3032L9.17676 13.9329L4.66699 16.3032C4.61133 16.333 4.55664 16.3591 4.5 16.3794C4.42383 16.4069 4.34668 16.4233 4.26562 16.4233C3.97461 16.4233 3.84375 16.1821 3.84375 15.9211C3.84375 15.8914 3.8457 15.8633 3.84863 15.8356L3.86426 15.7198L4.72754 10.6978L1.07129 7.14197C0.951172 7.01111 0.820312 6.84082 0.820312 6.66003C0.820312 6.55127 0.861328 6.46606 0.924805 6.39954C0.96875 6.35303 1.02441 6.3158 1.08594 6.28613C1.17969 6.24084 1.28613 6.21326 1.38281 6.19775L6.4248 5.46472L8.68457 0.894287C8.77441 0.703735 8.94531 0.482788 9.17676 0.482788C9.40918 0.482788 9.5791 0.703735 9.66992 0.894287L11.9297 5.46472L16.9717 6.19775Z" />
</svg>
